<svg width="834" height="9" viewBox="0 0 834 9" fill="none" xmlns="http://www.w3.org/2000/svg">
<line x1="0.992188" y1="4" x2="798.008" y2="4" stroke="white"/>
<path d="M808.4 1.07H806.94L803.96 8.48H805.41L808.4 1.07ZM812.951 1.07H811.491L808.511 8.48H809.961L812.951 1.07ZM823.852 4.3C823.852 4.02 823.822 3.75 823.762 3.49C823.712 3.23 823.572 2.94 823.362 2.62C823.152 2.3 822.872 2.02 822.532 1.79C822.192 1.56 821.712 1.37 821.082 1.21C820.462 1.05 819.732 0.97 818.902 0.97H818.472C817.642 0.97 816.912 1.05 816.292 1.21C815.672 1.37 815.192 1.56 814.852 1.79C814.502 2.02 814.232 2.3 814.022 2.62C813.812 2.94 813.672 3.23 813.612 3.49C813.552 3.75 813.522 4.02 813.522 4.3V4.57C813.522 4.85 813.552 5.12 813.612 5.38C813.672 5.64 813.812 5.94 814.022 6.26C814.232 6.59 814.502 6.87 814.852 7.1C815.192 7.33 815.672 7.53 816.292 7.69C816.912 7.86 817.642 7.94 818.472 7.94H818.902C819.732 7.94 820.462 7.86 821.082 7.69C821.712 7.53 822.192 7.33 822.532 7.1C822.872 6.86 823.152 6.58 823.362 6.26C823.572 5.94 823.712 5.64 823.762 5.38C823.822 5.12 823.852 4.85 823.852 4.57V4.3ZM821.452 4.36V4.49C821.452 4.71 821.412 4.91 821.322 5.1C821.242 5.3 821.102 5.49 820.912 5.67C820.722 5.86 820.442 6.01 820.062 6.12C819.672 6.23 819.222 6.29 818.682 6.29C818.152 6.29 817.692 6.23 817.312 6.12C816.932 6 816.652 5.85 816.452 5.66C816.262 5.47 816.132 5.28 816.052 5.08C815.962 4.89 815.922 4.68 815.922 4.47V4.36C815.922 4.19 815.942 4.03 815.992 3.88C816.032 3.73 816.112 3.58 816.242 3.42C816.362 3.26 816.522 3.12 816.722 3.01C816.922 2.89 817.182 2.8 817.522 2.72C817.862 2.64 818.242 2.61 818.682 2.61C819.222 2.61 819.672 2.66 820.062 2.77C820.442 2.88 820.722 3.02 820.912 3.2C821.102 3.39 821.242 3.57 821.322 3.76C821.412 3.95 821.452 4.15 821.452 4.36ZM829.015 8H829.485C832.425 8 833.895 7.24 833.895 5.7V5.63C833.895 5.39 833.855 5.16 833.765 4.96C833.675 4.76 833.555 4.59 833.405 4.46C833.255 4.34 833.105 4.23 832.965 4.16C832.815 4.08 832.655 4.02 832.495 3.98C832.785 3.92 833.055 3.79 833.305 3.59C833.545 3.39 833.665 3.13 833.665 2.81V2.76C833.665 2.59 833.645 2.43 833.595 2.29C833.545 2.15 833.435 2 833.255 1.83C833.075 1.67 832.835 1.53 832.535 1.41C832.225 1.3 831.795 1.2 831.235 1.13C830.685 1.05 830.025 1.01 829.275 1.01H828.855C828.325 1.01 827.835 1.04 827.395 1.1C826.955 1.16 826.595 1.24 826.315 1.34C826.025 1.44 825.775 1.55 825.565 1.69C825.355 1.83 825.185 1.97 825.075 2.1C824.965 2.23 824.875 2.37 824.805 2.52C824.735 2.68 824.695 2.81 824.675 2.91C824.655 3.02 824.645 3.13 824.645 3.24V3.33H827.055C827.065 3.26 827.075 3.21 827.085 3.18C827.095 3.16 827.135 3.1 827.215 3C827.295 2.9 827.395 2.83 827.525 2.78C827.645 2.73 827.845 2.68 828.115 2.63C828.385 2.58 828.705 2.56 829.075 2.56C829.465 2.56 829.795 2.57 830.075 2.6C830.355 2.62 830.565 2.66 830.715 2.69C830.865 2.73 830.975 2.78 831.065 2.83C831.155 2.89 831.205 2.94 831.225 2.99C831.245 3.03 831.255 3.09 831.255 3.15C831.255 3.44 830.935 3.59 830.295 3.59H827.805V5.16H830.415C831.095 5.16 831.445 5.34 831.445 5.69C831.445 5.76 831.435 5.82 831.415 5.88C831.405 5.93 831.345 5.99 831.265 6.07C831.175 6.14 831.065 6.21 830.915 6.26C830.765 6.31 830.545 6.35 830.255 6.39C829.975 6.42 829.625 6.44 829.225 6.44C827.895 6.44 827.175 6.1 827.055 5.42H824.635V5.49C824.635 5.61 824.635 5.73 824.655 5.85C824.675 5.97 824.725 6.11 824.795 6.28C824.875 6.46 824.965 6.62 825.095 6.77C825.215 6.92 825.385 7.07 825.615 7.23C825.835 7.38 826.095 7.52 826.395 7.63C826.685 7.74 827.065 7.83 827.515 7.9C827.965 7.97 828.465 8 829.015 8Z" fill="white"/>
</svg>
