<svg width="88" height="86" viewBox="0 0 88 86" fill="none" xmlns="http://www.w3.org/2000/svg">
<rect x="4" y="4" width="81" height="78" fill="#2E2D72"/>
<path d="M3.89688 3.99063H84.1031V82.0094H3.89688V3.99063ZM0.25 85.6562H87.75V0.34375H0.25V85.6562ZM59.2406 35.3438C56.3594 35.3438 55.375 36.8031 55.375 38.0063C55.375 39.3188 56.0312 40.2313 59.8969 42.2344C65.6219 45.0063 67.3969 47.6656 67.3969 51.5688C67.3969 57.4031 62.95 60.5375 56.9344 60.5375C54.3526 60.6332 51.7866 60.0968 49.4594 58.975C49.2031 58.8656 49.1687 58.6844 49.1687 58.3906V53.025C49.1687 52.6594 49.35 52.55 49.6063 52.7344C51.7919 54.1398 54.3359 54.8862 56.9344 54.8844C59.8156 54.8844 61.0187 53.6812 61.0187 52.0406C61.0187 50.7281 60.1813 49.5625 56.4969 47.6656C51.3188 45.1875 49.1687 42.6656 49.1687 38.4781C49.1687 33.775 52.85 29.875 59.2313 29.875C61.4525 29.7796 63.6705 30.127 65.7562 30.8969C65.8764 30.9748 65.9735 31.0834 66.0378 31.2114C66.1021 31.3393 66.1311 31.4821 66.1219 31.625V36.625C66.1219 36.9156 65.9406 37.1 65.575 36.9906C63.6474 35.8809 61.4552 35.314 59.2313 35.35L59.2406 35.3438ZM27.8844 39.6812C28.7219 39.7531 29.3781 39.7531 30.8375 39.7531C35.1031 39.7531 39.1125 38.2594 39.1125 32.4625C39.1125 27.8312 36.2313 25.5 31.3844 25.5C29.925 25.5 28.5406 25.5719 27.8844 25.6094V39.6812ZM21.3937 20.3063C21.3937 20.05 21.9031 19.8687 22.1969 19.8687C25.3306 19.7407 28.4668 19.6803 31.6031 19.6875C41.7031 19.6875 45.6406 25.2281 45.6406 32.3031C45.6406 41.5625 38.9312 45.5375 30.6937 45.5375C29.3094 45.5375 28.8344 45.4656 27.85 45.4656V59.4656C27.85 59.7562 27.7406 59.9031 27.4125 59.9031H21.8344C21.5437 59.9031 21.3969 59.7937 21.3969 59.4656V20.3219L21.3937 20.3063Z" fill="#31C5F0"/>
</svg>
