<svg width="168" height="331" viewBox="0 0 168 331" fill="none" xmlns="http://www.w3.org/2000/svg">
<circle cx="2.5" cy="2.5" r="2.5" fill="#B584F3"/>
<circle cx="17.5" cy="2.5" r="2.5" fill="#B584F3"/>
<circle cx="32.5" cy="2.5" r="2.5" fill="#B584F3"/>
<circle cx="46.5" cy="2.5" r="2.5" fill="#B584F3"/>
<circle cx="61.5" cy="2.5" r="2.5" fill="#B584F3"/>
<circle cx="76.5" cy="2.5" r="2.5" fill="#B584F3"/>
<circle cx="91.5" cy="2.5" r="2.5" fill="#B584F3"/>
<circle cx="106.5" cy="2.5" r="2.5" fill="#B584F3"/>
<circle cx="121.5" cy="2.5" r="2.5" fill="#B584F3"/>
<circle cx="135.5" cy="2.5" r="2.5" fill="#B584F3"/>
<circle cx="150.5" cy="2.5" r="2.5" fill="#B584F3"/>
<circle cx="165.5" cy="2.5" r="2.5" fill="#B584F3"/>
<circle cx="2.5" cy="14.5" r="2.5" fill="#B584F3"/>
<circle cx="17.5" cy="14.5" r="2.5" fill="#B584F3"/>
<circle cx="32.5" cy="14.5" r="2.5" fill="#B584F3"/>
<circle cx="46.5" cy="14.5" r="2.5" fill="#B584F3"/>
<circle cx="61.5" cy="14.5" r="2.5" fill="#B584F3"/>
<circle cx="76.5" cy="14.5" r="2.5" fill="#B584F3"/>
<circle cx="91.5" cy="14.5" r="2.5" fill="#B584F3"/>
<circle cx="106.5" cy="14.5" r="2.5" fill="#B584F3"/>
<circle cx="121.5" cy="14.5" r="2.5" fill="#B584F3"/>
<circle cx="135.5" cy="14.5" r="2.5" fill="#B584F3"/>
<circle cx="150.5" cy="14.5" r="2.5" fill="#B584F3"/>
<circle cx="165.5" cy="14.5" r="2.5" fill="#B584F3"/>
<circle cx="2.5" cy="28.5" r="2.5" fill="#B584F3"/>
<circle cx="17.5" cy="28.5" r="2.5" fill="#B584F3"/>
<circle cx="32.5" cy="28.5" r="2.5" fill="#B584F3"/>
<circle cx="46.5" cy="28.5" r="2.5" fill="#B584F3"/>
<circle cx="61.5" cy="28.5" r="2.5" fill="#B584F3"/>
<circle cx="76.5" cy="28.5" r="2.5" fill="#B584F3"/>
<circle cx="91.5" cy="28.5" r="2.5" fill="#B584F3"/>
<circle cx="106.5" cy="28.5" r="2.5" fill="#B584F3"/>
<circle cx="121.5" cy="28.5" r="2.5" fill="#B584F3"/>
<circle cx="135.5" cy="28.5" r="2.5" fill="#B584F3"/>
<circle cx="150.5" cy="28.5" r="2.5" fill="#B584F3"/>
<circle cx="165.5" cy="28.5" r="2.5" fill="#B584F3"/>
<circle cx="2.5" cy="43.5" r="2.5" fill="#B584F3"/>
<circle cx="17.5" cy="43.5" r="2.5" fill="#B584F3"/>
<circle cx="32.5" cy="43.5" r="2.5" fill="#B584F3"/>
<circle cx="46.5" cy="43.5" r="2.5" fill="#B584F3"/>
<circle cx="61.5" cy="43.5" r="2.5" fill="#B584F3"/>
<circle cx="76.5" cy="43.5" r="2.5" fill="#B584F3"/>
<circle cx="91.5" cy="43.5" r="2.5" fill="#B584F3"/>
<circle cx="106.5" cy="43.5" r="2.5" fill="#B584F3"/>
<circle cx="121.5" cy="43.5" r="2.5" fill="#B584F3"/>
<circle cx="135.5" cy="43.5" r="2.5" fill="#B584F3"/>
<circle cx="150.5" cy="43.5" r="2.5" fill="#B584F3"/>
<circle cx="165.5" cy="43.5" r="2.5" fill="#B584F3"/>
<circle cx="2.5" cy="59.5" r="2.5" fill="#B584F3"/>
<circle cx="17.5" cy="59.5" r="2.5" fill="#B584F3"/>
<circle cx="32.5" cy="59.5" r="2.5" fill="#B584F3"/>
<circle cx="46.5" cy="59.5" r="2.5" fill="#B584F3"/>
<circle cx="61.5" cy="59.5" r="2.5" fill="#B584F3"/>
<circle cx="76.5" cy="59.5" r="2.5" fill="#B584F3"/>
<circle cx="91.5" cy="59.5" r="2.5" fill="#B584F3"/>
<circle cx="106.5" cy="59.5" r="2.5" fill="#B584F3"/>
<circle cx="121.5" cy="59.5" r="2.5" fill="#B584F3"/>
<circle cx="135.5" cy="59.5" r="2.5" fill="#B584F3"/>
<circle cx="150.5" cy="59.5" r="2.5" fill="#B584F3"/>
<circle cx="165.5" cy="59.5" r="2.5" fill="#B584F3"/>
<circle cx="2.5" cy="74.5" r="2.5" fill="#B584F3"/>
<circle cx="17.5" cy="74.5" r="2.5" fill="#B584F3"/>
<circle cx="32.5" cy="74.5" r="2.5" fill="#B584F3"/>
<circle cx="46.5" cy="74.5" r="2.5" fill="#B584F3"/>
<circle cx="61.5" cy="74.5" r="2.5" fill="#B584F3"/>
<circle cx="76.5" cy="74.5" r="2.5" fill="#B584F3"/>
<circle cx="91.5" cy="74.5" r="2.5" fill="#B584F3"/>
<circle cx="106.5" cy="74.5" r="2.5" fill="#B584F3"/>
<circle cx="121.5" cy="74.5" r="2.5" fill="#B584F3"/>
<circle cx="135.5" cy="74.5" r="2.5" fill="#B584F3"/>
<circle cx="150.5" cy="74.5" r="2.5" fill="#B584F3"/>
<circle cx="165.5" cy="74.5" r="2.5" fill="#B584F3"/>
<circle cx="2.5" cy="86.5" r="2.5" fill="#B584F3"/>
<circle cx="17.5" cy="86.5" r="2.5" fill="#B584F3"/>
<circle cx="32.5" cy="86.5" r="2.5" fill="#B584F3"/>
<circle cx="46.5" cy="86.5" r="2.5" fill="#B584F3"/>
<circle cx="61.5" cy="86.5" r="2.5" fill="#B584F3"/>
<circle cx="76.5" cy="86.5" r="2.5" fill="#B584F3"/>
<circle cx="91.5" cy="86.5" r="2.5" fill="#B584F3"/>
<circle cx="106.5" cy="86.5" r="2.5" fill="#B584F3"/>
<circle cx="121.5" cy="86.5" r="2.5" fill="#B584F3"/>
<circle cx="135.5" cy="86.5" r="2.5" fill="#B584F3"/>
<circle cx="150.5" cy="86.5" r="2.5" fill="#B584F3"/>
<circle cx="165.5" cy="86.5" r="2.5" fill="#B584F3"/>
<circle cx="2.5" cy="98.5" r="2.5" fill="#B584F3"/>
<circle cx="17.5" cy="98.5" r="2.5" fill="#B584F3"/>
<circle cx="32.5" cy="98.5" r="2.5" fill="#B584F3"/>
<circle cx="46.5" cy="98.5" r="2.5" fill="#B584F3"/>
<circle cx="61.5" cy="98.5" r="2.5" fill="#B584F3"/>
<circle cx="76.5" cy="98.5" r="2.5" fill="#B584F3"/>
<circle cx="91.5" cy="98.5" r="2.5" fill="#B584F3"/>
<circle cx="106.5" cy="98.5" r="2.5" fill="#B584F3"/>
<circle cx="121.5" cy="98.5" r="2.5" fill="#B584F3"/>
<circle cx="135.5" cy="98.5" r="2.5" fill="#B584F3"/>
<circle cx="150.5" cy="98.5" r="2.5" fill="#B584F3"/>
<circle cx="165.5" cy="98.5" r="2.5" fill="#B584F3"/>
<circle cx="2.5" cy="112.5" r="2.5" fill="#B584F3"/>
<circle cx="17.5" cy="112.5" r="2.5" fill="#B584F3"/>
<circle cx="32.5" cy="112.5" r="2.5" fill="#B584F3"/>
<circle cx="46.5" cy="112.5" r="2.5" fill="#B584F3"/>
<circle cx="61.5" cy="112.5" r="2.5" fill="#B584F3"/>
<circle cx="76.5" cy="112.5" r="2.5" fill="#B584F3"/>
<circle cx="91.5" cy="112.5" r="2.5" fill="#B584F3"/>
<circle cx="106.5" cy="112.5" r="2.5" fill="#B584F3"/>
<circle cx="121.5" cy="112.5" r="2.5" fill="#B584F3"/>
<circle cx="135.5" cy="112.5" r="2.5" fill="#B584F3"/>
<circle cx="150.5" cy="112.5" r="2.5" fill="#B584F3"/>
<circle cx="165.5" cy="112.5" r="2.5" fill="#B584F3"/>
<circle cx="2.5" cy="127.5" r="2.5" fill="#B584F3"/>
<circle cx="17.5" cy="127.5" r="2.5" fill="#B584F3"/>
<circle cx="32.5" cy="127.5" r="2.5" fill="#B584F3"/>
<circle cx="46.5" cy="127.5" r="2.5" fill="#B584F3"/>
<circle cx="61.5" cy="127.5" r="2.5" fill="#B584F3"/>
<circle cx="76.5" cy="127.5" r="2.5" fill="#B584F3"/>
<circle cx="91.5" cy="127.5" r="2.5" fill="#B584F3"/>
<circle cx="106.5" cy="127.5" r="2.5" fill="#B584F3"/>
<circle cx="121.5" cy="127.5" r="2.5" fill="#B584F3"/>
<circle cx="135.5" cy="127.5" r="2.5" fill="#B584F3"/>
<circle cx="150.5" cy="127.5" r="2.5" fill="#B584F3"/>
<circle cx="165.5" cy="127.5" r="2.5" fill="#B584F3"/>
<circle cx="2.5" cy="143.5" r="2.5" fill="#B584F3"/>
<circle cx="17.5" cy="143.5" r="2.5" fill="#B584F3"/>
<circle cx="32.5" cy="143.5" r="2.5" fill="#B584F3"/>
<circle cx="46.5" cy="143.5" r="2.5" fill="#B584F3"/>
<circle cx="61.5" cy="143.5" r="2.5" fill="#B584F3"/>
<circle cx="76.5" cy="143.5" r="2.5" fill="#B584F3"/>
<circle cx="91.5" cy="143.5" r="2.5" fill="#B584F3"/>
<circle cx="106.5" cy="143.5" r="2.5" fill="#B584F3"/>
<circle cx="121.5" cy="143.5" r="2.5" fill="#B584F3"/>
<circle cx="135.5" cy="143.5" r="2.5" fill="#B584F3"/>
<circle cx="150.5" cy="143.5" r="2.5" fill="#B584F3"/>
<circle cx="165.5" cy="143.5" r="2.5" fill="#B584F3"/>
<circle cx="2.5" cy="158.5" r="2.5" fill="#B584F3"/>
<circle cx="17.5" cy="158.5" r="2.5" fill="#B584F3"/>
<circle cx="32.5" cy="158.5" r="2.5" fill="#B584F3"/>
<circle cx="46.5" cy="158.5" r="2.5" fill="#B584F3"/>
<circle cx="61.5" cy="158.5" r="2.5" fill="#B584F3"/>
<circle cx="76.5" cy="158.5" r="2.5" fill="#B584F3"/>
<circle cx="91.5" cy="158.5" r="2.5" fill="#B584F3"/>
<circle cx="106.5" cy="158.5" r="2.5" fill="#B584F3"/>
<circle cx="121.5" cy="158.5" r="2.5" fill="#B584F3"/>
<circle cx="135.5" cy="158.5" r="2.5" fill="#B584F3"/>
<circle cx="150.5" cy="158.5" r="2.5" fill="#B584F3"/>
<circle cx="165.5" cy="158.5" r="2.5" fill="#B584F3"/>
<circle cx="2.5" cy="172.5" r="2.5" fill="#B584F3"/>
<circle cx="17.5" cy="172.5" r="2.5" fill="#B584F3"/>
<circle cx="32.5" cy="172.5" r="2.5" fill="#B584F3"/>
<circle cx="46.5" cy="172.5" r="2.5" fill="#B584F3"/>
<circle cx="61.5" cy="172.5" r="2.5" fill="#B584F3"/>
<circle cx="76.5" cy="172.5" r="2.5" fill="#B584F3"/>
<circle cx="91.5" cy="172.5" r="2.5" fill="#B584F3"/>
<circle cx="106.5" cy="172.5" r="2.5" fill="#B584F3"/>
<circle cx="121.5" cy="172.5" r="2.5" fill="#B584F3"/>
<circle cx="135.5" cy="172.5" r="2.5" fill="#B584F3"/>
<circle cx="150.5" cy="172.5" r="2.5" fill="#B584F3"/>
<circle cx="165.5" cy="172.5" r="2.5" fill="#B584F3"/>
<circle cx="2.5" cy="184.5" r="2.5" fill="#B584F3"/>
<circle cx="17.5" cy="184.5" r="2.5" fill="#B584F3"/>
<circle cx="32.5" cy="184.5" r="2.5" fill="#B584F3"/>
<circle cx="46.5" cy="184.5" r="2.5" fill="#B584F3"/>
<circle cx="61.5" cy="184.5" r="2.5" fill="#B584F3"/>
<circle cx="76.5" cy="184.5" r="2.5" fill="#B584F3"/>
<circle cx="91.5" cy="184.5" r="2.5" fill="#B584F3"/>
<circle cx="106.5" cy="184.5" r="2.5" fill="#B584F3"/>
<circle cx="121.5" cy="184.5" r="2.5" fill="#B584F3"/>
<circle cx="135.5" cy="184.5" r="2.5" fill="#B584F3"/>
<circle cx="150.5" cy="184.5" r="2.5" fill="#B584F3"/>
<circle cx="165.5" cy="184.5" r="2.5" fill="#B584F3"/>
<circle cx="2.5" cy="198.5" r="2.5" fill="#B584F3"/>
<circle cx="17.5" cy="198.5" r="2.5" fill="#B584F3"/>
<circle cx="32.5" cy="198.5" r="2.5" fill="#B584F3"/>
<circle cx="46.5" cy="198.5" r="2.5" fill="#B584F3"/>
<circle cx="61.5" cy="198.5" r="2.5" fill="#B584F3"/>
<circle cx="76.5" cy="198.5" r="2.5" fill="#B584F3"/>
<circle cx="91.5" cy="198.5" r="2.5" fill="#B584F3"/>
<circle cx="106.5" cy="198.5" r="2.5" fill="#B584F3"/>
<circle cx="121.5" cy="198.5" r="2.5" fill="#B584F3"/>
<circle cx="135.5" cy="198.5" r="2.5" fill="#B584F3"/>
<circle cx="150.5" cy="198.5" r="2.5" fill="#B584F3"/>
<circle cx="165.5" cy="198.5" r="2.5" fill="#B584F3"/>
<circle cx="2.5" cy="213.5" r="2.5" fill="#B584F3"/>
<circle cx="17.5" cy="213.5" r="2.5" fill="#B584F3"/>
<circle cx="32.5" cy="213.5" r="2.5" fill="#B584F3"/>
<circle cx="46.5" cy="213.5" r="2.5" fill="#B584F3"/>
<circle cx="61.5" cy="213.5" r="2.5" fill="#B584F3"/>
<circle cx="76.5" cy="213.5" r="2.5" fill="#B584F3"/>
<circle cx="91.5" cy="213.5" r="2.5" fill="#B584F3"/>
<circle cx="106.5" cy="213.5" r="2.5" fill="#B584F3"/>
<circle cx="121.5" cy="213.5" r="2.5" fill="#B584F3"/>
<circle cx="135.5" cy="213.5" r="2.5" fill="#B584F3"/>
<circle cx="150.5" cy="213.5" r="2.5" fill="#B584F3"/>
<circle cx="165.5" cy="213.5" r="2.5" fill="#B584F3"/>
<circle cx="2.5" cy="229.5" r="2.5" fill="#B584F3"/>
<circle cx="17.5" cy="229.5" r="2.5" fill="#B584F3"/>
<circle cx="32.5" cy="229.5" r="2.5" fill="#B584F3"/>
<circle cx="46.5" cy="229.5" r="2.5" fill="#B584F3"/>
<circle cx="61.5" cy="229.5" r="2.5" fill="#B584F3"/>
<circle cx="76.5" cy="229.5" r="2.5" fill="#B584F3"/>
<circle cx="91.5" cy="229.5" r="2.5" fill="#B584F3"/>
<circle cx="106.5" cy="229.5" r="2.5" fill="#B584F3"/>
<circle cx="121.5" cy="229.5" r="2.5" fill="#B584F3"/>
<circle cx="135.5" cy="229.5" r="2.5" fill="#B584F3"/>
<circle cx="150.5" cy="229.5" r="2.5" fill="#B584F3"/>
<circle cx="165.5" cy="229.5" r="2.5" fill="#B584F3"/>
<circle cx="2.5" cy="244.5" r="2.5" fill="#B584F3"/>
<circle cx="17.5" cy="244.5" r="2.5" fill="#B584F3"/>
<circle cx="32.5" cy="244.5" r="2.5" fill="#B584F3"/>
<circle cx="46.5" cy="244.5" r="2.5" fill="#B584F3"/>
<circle cx="61.5" cy="244.5" r="2.5" fill="#B584F3"/>
<circle cx="76.5" cy="244.5" r="2.5" fill="#B584F3"/>
<circle cx="91.5" cy="244.5" r="2.5" fill="#B584F3"/>
<circle cx="106.5" cy="244.5" r="2.5" fill="#B584F3"/>
<circle cx="121.5" cy="244.5" r="2.5" fill="#B584F3"/>
<circle cx="135.5" cy="244.5" r="2.5" fill="#B584F3"/>
<circle cx="150.5" cy="244.5" r="2.5" fill="#B584F3"/>
<circle cx="165.5" cy="244.5" r="2.5" fill="#B584F3"/>
<circle cx="2.5" cy="256.5" r="2.5" fill="#B584F3"/>
<circle cx="17.5" cy="256.5" r="2.5" fill="#B584F3"/>
<circle cx="32.5" cy="256.5" r="2.5" fill="#B584F3"/>
<circle cx="46.5" cy="256.5" r="2.5" fill="#B584F3"/>
<circle cx="61.5" cy="256.5" r="2.5" fill="#B584F3"/>
<circle cx="76.5" cy="256.5" r="2.5" fill="#B584F3"/>
<circle cx="91.5" cy="256.5" r="2.5" fill="#B584F3"/>
<circle cx="106.5" cy="256.5" r="2.5" fill="#B584F3"/>
<circle cx="121.5" cy="256.5" r="2.5" fill="#B584F3"/>
<circle cx="135.5" cy="256.5" r="2.5" fill="#B584F3"/>
<circle cx="150.5" cy="256.5" r="2.5" fill="#B584F3"/>
<circle cx="165.5" cy="256.5" r="2.5" fill="#B584F3"/>
<circle cx="2.5" cy="268.5" r="2.5" fill="#B584F3"/>
<circle cx="17.5" cy="268.5" r="2.5" fill="#B584F3"/>
<circle cx="32.5" cy="268.5" r="2.5" fill="#B584F3"/>
<circle cx="46.5" cy="268.5" r="2.5" fill="#B584F3"/>
<circle cx="61.5" cy="268.5" r="2.5" fill="#B584F3"/>
<circle cx="76.5" cy="268.5" r="2.5" fill="#B584F3"/>
<circle cx="91.5" cy="268.5" r="2.5" fill="#B584F3"/>
<circle cx="106.5" cy="268.5" r="2.5" fill="#B584F3"/>
<circle cx="121.5" cy="268.5" r="2.5" fill="#B584F3"/>
<circle cx="135.5" cy="268.5" r="2.5" fill="#B584F3"/>
<circle cx="150.5" cy="268.5" r="2.5" fill="#B584F3"/>
<circle cx="165.5" cy="268.5" r="2.5" fill="#B584F3"/>
<circle cx="2.5" cy="282.5" r="2.5" fill="#B584F3"/>
<circle cx="17.5" cy="282.5" r="2.5" fill="#B584F3"/>
<circle cx="32.5" cy="282.5" r="2.5" fill="#B584F3"/>
<circle cx="46.5" cy="282.5" r="2.5" fill="#B584F3"/>
<circle cx="61.5" cy="282.5" r="2.5" fill="#B584F3"/>
<circle cx="76.5" cy="282.5" r="2.5" fill="#B584F3"/>
<circle cx="91.5" cy="282.5" r="2.5" fill="#B584F3"/>
<circle cx="106.5" cy="282.5" r="2.5" fill="#B584F3"/>
<circle cx="121.5" cy="282.5" r="2.5" fill="#B584F3"/>
<circle cx="135.5" cy="282.5" r="2.5" fill="#B584F3"/>
<circle cx="150.5" cy="282.5" r="2.5" fill="#B584F3"/>
<circle cx="165.5" cy="282.5" r="2.5" fill="#B584F3"/>
<circle cx="2.5" cy="297.5" r="2.5" fill="#B584F3"/>
<circle cx="17.5" cy="297.5" r="2.5" fill="#B584F3"/>
<circle cx="32.5" cy="297.5" r="2.5" fill="#B584F3"/>
<circle cx="46.5" cy="297.5" r="2.5" fill="#B584F3"/>
<circle cx="61.5" cy="297.5" r="2.5" fill="#B584F3"/>
<circle cx="76.5" cy="297.5" r="2.5" fill="#B584F3"/>
<circle cx="91.5" cy="297.5" r="2.5" fill="#B584F3"/>
<circle cx="106.5" cy="297.5" r="2.5" fill="#B584F3"/>
<circle cx="121.5" cy="297.5" r="2.5" fill="#B584F3"/>
<circle cx="135.5" cy="297.5" r="2.5" fill="#B584F3"/>
<circle cx="150.5" cy="297.5" r="2.5" fill="#B584F3"/>
<circle cx="165.5" cy="297.5" r="2.5" fill="#B584F3"/>
<circle cx="2.5" cy="313.5" r="2.5" fill="#B584F3"/>
<circle cx="17.5" cy="313.5" r="2.5" fill="#B584F3"/>
<circle cx="32.5" cy="313.5" r="2.5" fill="#B584F3"/>
<circle cx="46.5" cy="313.5" r="2.5" fill="#B584F3"/>
<circle cx="61.5" cy="313.5" r="2.5" fill="#B584F3"/>
<circle cx="76.5" cy="313.5" r="2.5" fill="#B584F3"/>
<circle cx="91.5" cy="313.5" r="2.5" fill="#B584F3"/>
<circle cx="106.5" cy="313.5" r="2.5" fill="#B584F3"/>
<circle cx="121.5" cy="313.5" r="2.5" fill="#B584F3"/>
<circle cx="135.5" cy="313.5" r="2.5" fill="#B584F3"/>
<circle cx="150.5" cy="313.5" r="2.5" fill="#B584F3"/>
<circle cx="165.5" cy="313.5" r="2.5" fill="#B584F3"/>
<circle cx="2.5" cy="328.5" r="2.5" fill="#B584F3"/>
<circle cx="17.5" cy="328.5" r="2.5" fill="#B584F3"/>
<circle cx="32.5" cy="328.5" r="2.5" fill="#B584F3"/>
<circle cx="46.5" cy="328.5" r="2.5" fill="#B584F3"/>
<circle cx="61.5" cy="328.5" r="2.5" fill="#B584F3"/>
<circle cx="76.5" cy="328.5" r="2.5" fill="#B584F3"/>
<circle cx="91.5" cy="328.5" r="2.5" fill="#B584F3"/>
<circle cx="106.5" cy="328.5" r="2.5" fill="#B584F3"/>
<circle cx="121.5" cy="328.5" r="2.5" fill="#B584F3"/>
<circle cx="135.5" cy="328.5" r="2.5" fill="#B584F3"/>
<circle cx="150.5" cy="328.5" r="2.5" fill="#B584F3"/>
<circle cx="165.5" cy="328.5" r="2.5" fill="#B584F3"/>
</svg>
