<svg width="829" height="9" viewBox="0 0 829 9" fill="none" xmlns="http://www.w3.org/2000/svg">
<line x1="0.992188" y1="4" x2="798.008" y2="4" stroke="white"/>
<path d="M808.4 1.07H806.94L803.96 8.48H805.41L808.4 1.07ZM812.951 1.07H811.491L808.511 8.48H809.961L812.951 1.07ZM823.852 4.3C823.852 4.02 823.822 3.75 823.762 3.49C823.712 3.23 823.572 2.94 823.362 2.62C823.152 2.3 822.872 2.02 822.532 1.79C822.192 1.56 821.712 1.37 821.082 1.21C820.462 1.05 819.732 0.97 818.902 0.97H818.472C817.642 0.97 816.912 1.05 816.292 1.21C815.672 1.37 815.192 1.56 814.852 1.79C814.502 2.02 814.232 2.3 814.022 2.62C813.812 2.94 813.672 3.23 813.612 3.49C813.552 3.75 813.522 4.02 813.522 4.3V4.57C813.522 4.85 813.552 5.12 813.612 5.38C813.672 5.64 813.812 5.94 814.022 6.26C814.232 6.59 814.502 6.87 814.852 7.1C815.192 7.33 815.672 7.53 816.292 7.69C816.912 7.86 817.642 7.94 818.472 7.94H818.902C819.732 7.94 820.462 7.86 821.082 7.69C821.712 7.53 822.192 7.33 822.532 7.1C822.872 6.86 823.152 6.58 823.362 6.26C823.572 5.94 823.712 5.64 823.762 5.38C823.822 5.12 823.852 4.85 823.852 4.57V4.3ZM821.452 4.36V4.49C821.452 4.71 821.412 4.91 821.322 5.1C821.242 5.3 821.102 5.49 820.912 5.67C820.722 5.86 820.442 6.01 820.062 6.12C819.672 6.23 819.222 6.29 818.682 6.29C818.152 6.29 817.692 6.23 817.312 6.12C816.932 6 816.652 5.85 816.452 5.66C816.262 5.47 816.132 5.28 816.052 5.08C815.962 4.89 815.922 4.68 815.922 4.47V4.36C815.922 4.19 815.942 4.03 815.992 3.88C816.032 3.73 816.112 3.58 816.242 3.42C816.362 3.26 816.522 3.12 816.722 3.01C816.922 2.89 817.182 2.8 817.522 2.72C817.862 2.64 818.242 2.61 818.682 2.61C819.222 2.61 819.672 2.66 820.062 2.77C820.442 2.88 820.722 3.02 820.912 3.2C821.102 3.39 821.242 3.57 821.322 3.76C821.412 3.95 821.452 4.15 821.452 4.36ZM826.333 3.67V8H828.693V1.01H826.833C826.433 1.85 825.683 2.29 824.563 2.36V3.67H826.333Z" fill="white"/>
</svg>
